<svg width="18" height="18" viewBox="0 0 18 18" fill="none" xmlns="http://www.w3.org/2000/svg">
<path opacity="0.3" fill-rule="evenodd" clip-rule="evenodd" d="M9 16.5C5.27208 16.5 2.25 13.4779 2.25 9.75C2.25 6.02208 5.27208 3 9 3C12.7279 3 15.75 6.02208 15.75 9.75C15.75 13.4779 12.7279 16.5 9 16.5Z" fill="#A7ADB2"/>
<path fill-rule="evenodd" clip-rule="evenodd" d="M8.97207 5.625H9.03544C9.22809 5.625 9.38941 5.77099 9.40858 5.96269L9.74981 9.375L12.1859 10.767C12.3027 10.8338 12.3748 10.958 12.3748 11.0926V11.25C12.3748 11.4082 12.2466 11.5364 12.0884 11.5364C12.0629 11.5364 12.0376 11.533 12.013 11.5263L8.5488 10.5815C8.37527 10.5342 8.25978 10.3703 8.27358 10.191L8.59817 5.97124C8.6132 5.77586 8.77612 5.625 8.97207 5.625Z" fill="#A7ADB2"/>
</svg>
