<svg width="18" height="18" viewBox="0 0 18 18" fill="none" xmlns="http://www.w3.org/2000/svg">
<path d="M7.125 3H4.125C3.50368 3 3 3.50368 3 4.125V7.125C3 7.74632 3.50368 8.25 4.125 8.25H7.125C7.74632 8.25 8.25 7.74632 8.25 7.125V4.125C8.25 3.50368 7.74632 3 7.125 3Z" fill="#A7ADB2"/>
<path opacity="0.3" fill-rule="evenodd" clip-rule="evenodd" d="M4.125 9.75H7.125C7.74632 9.75 8.25 10.2537 8.25 10.875V13.875C8.25 14.4963 7.74632 15 7.125 15H4.125C3.50368 15 3 14.4963 3 13.875V10.875C3 10.2537 3.50368 9.75 4.125 9.75ZM10.875 3H13.875C14.4963 3 15 3.50368 15 4.125V7.125C15 7.74632 14.4963 8.25 13.875 8.25H10.875C10.2537 8.25 9.75 7.74632 9.75 7.125V4.125C9.75 3.50368 10.2537 3 10.875 3ZM10.875 9.75H13.875C14.4963 9.75 15 10.2537 15 10.875V13.875C15 14.4963 14.4963 15 13.875 15H10.875C10.2537 15 9.75 14.4963 9.75 13.875V10.875C9.75 10.2537 10.2537 9.75 10.875 9.75Z" fill="#A7ADB2"/>
</svg>
