<svg width="63" height="80" viewBox="0 0 63 80" fill="none" xmlns="http://www.w3.org/2000/svg">
<path d="M57.0414 9.1957L31.4328 0L6.07363 9.07527C2.83922 10.5978 0.000510507 11.5183 0.000510507 14.529V29.5484C-0.0441948 40.092 2.84806 50.4398 8.3532 59.4323C13.8492 68.5076 21.9897 75.6846 31.6822 80C42.0478 76.671 49.7898 67.6989 54.5209 60.0172C60.0307 51.0173 62.9231 40.6599 62.8736 30.1075V16.628C62.8736 12.3269 60.5941 10.228 57.0414 9.1957Z" fill="#F2C94C"/>
<g opacity="0.3">
<path opacity="0.3" d="M31.6822 71.3204C23.9994 67.8512 17.5589 62.119 13.222 54.8903C8.86617 47.7745 6.57852 39.5861 6.61556 31.243V20.714C6.61556 18.3226 8.05212 16.0946 10.9166 14.7527L31.4414 7.07957V0L6.07363 9.07527C3.44137 10.2366 0.000510507 11.5183 0.000510507 14.529V29.5484C-0.0441948 40.092 2.84806 50.4398 8.3532 59.4323C13.8492 68.5076 21.9897 75.6846 31.6822 80V71.3204Z" fill="black"/>
</g>
<g opacity="0.4">
<path opacity="0.4" d="M31.6822 79.9999C33.421 79.4362 35.1053 78.7164 36.7145 77.8494C40.6615 75.6162 44.2513 72.8035 47.3639 69.5053C50.1858 66.4657 52.6692 63.1285 54.7704 59.5526C60.3504 50.4999 63.1667 40.0152 62.8736 29.3849V16.9892C62.8736 10.8128 59.6908 10.3569 57.0241 9.19564L31.4327 -6.10352e-05V7.07951L52.2069 14.8817C55.0628 16.215 56.508 18.4516 56.508 20.8343V31.372C56.5502 39.7277 54.2593 47.9294 49.893 55.0537C45.6567 62.252 39.295 67.9616 31.6822 71.3978V79.9999Z" fill="black"/>
</g>
<path opacity="0.5" d="M38.2284 30.572V28.5419C38.2605 27.6491 38.1124 26.759 37.7929 25.9247C37.4734 25.0905 36.9891 24.3291 36.3689 23.6862C35.7487 23.0432 35.0052 22.5319 34.183 22.1826C33.3608 21.8333 32.4766 21.6533 31.5832 21.6533C30.6899 21.6533 29.8057 21.8333 28.9834 22.1826C28.1612 22.5319 27.4178 23.0432 26.7975 23.6862C26.1773 24.3291 25.693 25.0905 25.3735 25.9247C25.054 26.759 24.9059 27.6491 24.9381 28.5419V30.6064C24.058 30.7382 23.2545 31.1814 22.6736 31.8555C22.0927 32.5296 21.773 33.3897 21.7725 34.2795V46.2365C21.7713 46.7248 21.8667 47.2086 22.053 47.6599C22.2394 48.1113 22.5131 48.5214 22.8584 48.8667C23.2037 49.212 23.6138 49.4857 24.0652 49.6721C24.5165 49.8584 25.0003 49.9538 25.4886 49.9526H37.8929C38.3812 49.9538 38.865 49.8584 39.3163 49.6721C39.7677 49.4857 40.1778 49.212 40.5231 48.8667C40.8684 48.5214 41.1421 48.1113 41.3285 47.6599C41.5148 47.2086 41.6102 46.7248 41.609 46.2365V34.2709C41.6066 33.3443 41.2588 32.4519 40.6337 31.768C40.0086 31.084 39.151 30.6576 38.2284 30.572ZM33.3854 43.2516H30.108L30.6155 40.9032C30.2597 40.6714 29.9884 40.3309 29.8419 39.9324C29.6954 39.534 29.6815 39.0988 29.8024 38.6918C29.9233 38.2848 30.1724 37.9277 30.5127 37.6738C30.853 37.4199 31.2662 37.2827 31.6908 37.2827C32.1153 37.2827 32.5285 37.4199 32.8688 37.6738C33.2091 37.9277 33.4582 38.2848 33.5791 38.6918C33.7 39.0988 33.6861 39.534 33.5396 39.9324C33.3931 40.3309 33.1218 40.6714 32.766 40.9032C33.0155 41.7806 33.3854 43.2516 33.3854 43.2516ZM36.8262 30.5548H26.366V28.5419C26.4207 27.1948 26.9943 25.9212 27.9668 24.9874C28.9392 24.0537 30.2351 23.5323 31.5832 23.5323C32.9314 23.5323 34.2273 24.0537 35.1997 24.9874C36.1721 25.9212 36.7457 27.1948 36.8004 28.5419L36.8262 30.5548Z" fill="white"/>
<path d="M10.7704 30.4257C10.5496 29.7668 10.4193 29.081 10.3833 28.387C10.189 26.6739 10.12 24.9489 10.1769 23.2257C10.1769 22.2279 10.2715 21.2816 10.3575 20.4214C10.4002 19.6369 10.596 18.8684 10.9339 18.1591C11.1767 17.6809 11.5653 17.2922 12.0435 17.0494C12.3876 16.8859 12.6113 16.8945 12.6113 16.9203C11.9837 17.1987 11.4769 17.6933 11.1833 18.3139C10.9074 19.0044 10.756 19.7383 10.736 20.4816C10.6672 21.3418 10.6156 22.2709 10.5898 23.2601C10.5296 25.23 10.5898 27.0193 10.6672 28.3182C10.7566 29.0169 10.7911 29.7216 10.7704 30.4257Z" fill="white"/>
<path d="M11.1834 36.9892C11.0629 36.9892 10.9511 36.3699 10.9339 35.6043C10.9167 34.8387 11.0113 34.2193 11.1318 34.2193C11.2522 34.2193 11.364 34.8387 11.3812 35.5957C11.3984 36.3527 11.2694 36.9892 11.1834 36.9892Z" fill="white"/>
</svg>
