<svg width="18" height="18" viewBox="0 0 18 18" fill="none" xmlns="http://www.w3.org/2000/svg">
<path fill-rule="evenodd" clip-rule="evenodd" d="M5.25 2.25H12.75C14.4069 2.25 15.75 3.59315 15.75 5.25C15.75 6.90685 14.4069 8.25 12.75 8.25H5.25C3.59315 8.25 2.25 6.90685 2.25 5.25C2.25 3.59315 3.59315 2.25 5.25 2.25ZM5.25 6.75C6.07843 6.75 6.75 6.07843 6.75 5.25C6.75 4.42157 6.07843 3.75 5.25 3.75C4.42157 3.75 3.75 4.42157 3.75 5.25C3.75 6.07843 4.42157 6.75 5.25 6.75Z" fill="#0678B8"/>
<path opacity="0.3" fill-rule="evenodd" clip-rule="evenodd" d="M5.25 9.75H12.75C14.4069 9.75 15.75 11.0931 15.75 12.75C15.75 14.4069 14.4069 15.75 12.75 15.75H5.25C3.59315 15.75 2.25 14.4069 2.25 12.75C2.25 11.0931 3.59315 9.75 5.25 9.75ZM12.75 14.25C13.5784 14.25 14.25 13.5784 14.25 12.75C14.25 11.9216 13.5784 11.25 12.75 11.25C11.9216 11.25 11.25 11.9216 11.25 12.75C11.25 13.5784 11.9216 14.25 12.75 14.25Z" fill="#0678B8"/>
</svg>
